<svg width="500" height="500" viewBox="0 0 500 500" fill="none" xmlns="http://www.w3.org/2000/svg">
<rect width="500" height="500" fill="white"/>
<path fill-rule="evenodd" clip-rule="evenodd" d="M323.984 108.415C344.536 113.194 369.888 98.9757 353.616 67.3125C335.933 32.9013 258.507 31.9454 239.868 33.379C229.287 34.1928 159.859 39.6952 155.273 87.3858C152.405 117.217 186.524 145.93 224.406 177.811C234.533 186.333 244.929 195.082 254.959 204.139C251.967 204.28 247.962 204.875 238.052 206.968C204.118 214.137 140.935 239.847 122.296 306.757C103.657 373.668 138.546 431.021 178.214 452.528C217.883 474.035 300.989 477.232 353.138 409.036C409.057 335.912 374.997 256.379 341.19 224.075C318.424 202.321 286.687 182.173 257.035 163.348L257.035 163.348C230.663 146.606 205.939 130.91 190.641 116.062C158.141 84.5182 182.038 57.7536 210.236 54.886C238.434 52.0184 257.552 56.3198 273.323 68.7462C286.713 79.2955 294.178 87.0856 299.78 92.9324C307.729 101.227 311.93 105.611 323.984 108.415ZM268.544 217.384C285.909 231.722 320.238 272.538 329.414 313.449C340.885 364.588 314.904 434.844 256.596 440.102C198.288 445.359 166.917 391.352 169.784 334C172.652 276.648 212.626 225.031 268.544 217.384Z" fill="url(#paint0_linear)"/>
<defs>
<linearGradient id="paint0_linear" x1="382.866" y1="277.703" x2="117.134" y2="277.703" gradientUnits="userSpaceOnUse">
<stop stop-color="#59C1E9"/>
<stop offset="1" stop-color="#6BD6B2"/>
</linearGradient>
</defs>
</svg>
