<svg width="13" height="16" viewBox="0 0 13 16" fill="none" xmlns="http://www.w3.org/2000/svg">
<path d="M10.2677 8.58781C10.2511 6.74527 11.7764 5.84887 11.8461 5.80713C10.9823 4.54772 9.64342 4.37564 9.17292 4.36192C8.04842 4.24358 6.95765 5.03479 6.38482 5.03479C5.80056 5.03479 4.91845 4.37335 3.96774 4.39279C2.74434 4.41165 1.59983 5.11997 0.97212 6.21989C-0.323315 8.46261 0.64283 11.7584 1.88396 13.5712C2.5048 14.459 3.23027 15.4503 4.17984 15.4154C5.10882 15.3771 5.45584 14.8232 6.57691 14.8232C7.68769 14.8232 8.01355 15.4154 8.98198 15.3931C9.979 15.3771 10.6067 14.5013 11.2058 13.6055C11.9233 12.5879 12.2114 11.5857 12.2229 11.5343C12.1994 11.5263 10.2866 10.7962 10.2677 8.58781Z" fill="white"/>
<path d="M8.43841 3.1694C8.93806 2.54455 9.27993 1.69446 9.18503 0.831787C8.46185 0.863801 7.55744 1.33201 7.03664 1.94314C6.57586 2.48167 6.16425 3.36435 6.27058 4.19443C7.08294 4.25503 7.91703 3.78453 8.43841 3.1694Z" fill="white"/>
</svg>
