<svg width="169" height="120" viewBox="0 0 169 120" fill="none" xmlns="http://www.w3.org/2000/svg">
<path fill-rule="evenodd" clip-rule="evenodd" d="M99.6793 13.1365C103.259 13.9691 107.675 11.4924 104.841 5.97692C101.761 -0.0171868 88.2738 -0.183703 85.027 0.0660231C83.184 0.20778 71.0902 1.16624 70.2914 9.47351C69.7918 14.6698 75.735 19.6714 82.3337 25.2247C84.0977 26.7092 85.9086 28.2332 87.6557 29.8109C87.1345 29.8354 86.4369 29.939 84.7106 30.3037C78.7998 31.5525 67.7939 36.0308 64.5471 47.6861C61.3003 59.3413 67.3776 69.3315 74.2875 73.0779C81.1974 76.8242 95.6737 77.3811 104.758 65.502C114.498 52.7646 108.565 38.9106 102.676 33.2835C98.7107 29.4941 93.1825 25.9845 88.0173 22.7055L88.0173 22.7054L88.0172 22.7054C83.4235 19.7891 79.1169 17.0551 76.4521 14.4686C70.791 8.974 74.9535 4.31185 79.8654 3.81234C84.7773 3.31283 88.1073 4.06209 90.8546 6.22665C93.187 8.06426 94.4872 9.42121 95.4632 10.4397C96.8478 11.8846 97.5795 12.6482 99.6793 13.1365ZM90.0212 32.1179C93.046 34.6155 99.0258 41.7252 100.624 48.8515C102.622 57.7595 98.0966 69.9975 87.9399 70.9133C77.7832 71.8291 72.3187 62.4216 72.8182 52.4314C73.3177 42.4411 80.2808 33.4499 90.0212 32.1179Z" fill="url(#paint0_linear)"/>
<path d="M11.9023 119.86C15.6553 119.86 17.9607 118.573 19.9981 117.34L19.033 115.517C17.1029 116.911 14.9047 117.823 12.1168 117.823C6.32647 117.823 2.51987 113.158 2.41264 106.671H20.9631C21.0704 106.028 21.0704 105.384 21.0704 104.741C21.0704 97.1812 17.3174 92.8385 11.2054 92.8385C5.46864 92.8385 0 97.9854 0 106.403C0 114.82 5.3078 119.86 11.9023 119.86ZM2.41264 104.741C2.94878 98.5752 6.86261 94.8758 11.259 94.8758C15.8698 94.8758 18.8186 98.1463 18.8186 104.741H2.41264Z" fill="#1B3F3F"/>
<path d="M27.7935 119.217H38.0338C46.0223 119.217 51.1693 115.732 51.1693 108.923C51.1693 104.044 48.1133 101.149 43.5561 100.398V100.184C47.0946 99.1113 49.0247 96.1625 49.0247 92.4632C49.0247 86.5656 44.4675 83.8849 37.3368 83.8849H27.7935V119.217ZM30.2597 99.433V85.9222H36.6398C43.1271 85.9222 46.5584 87.7451 46.5584 92.7312C46.5584 96.8595 43.6097 99.433 36.3718 99.433H30.2597ZM30.2597 117.179V101.47H37.3904C44.6283 101.47 48.7566 103.883 48.7566 108.976C48.7566 114.606 44.4139 117.179 37.3904 117.179H30.2597Z" fill="#1B3F3F"/>
<path d="M67.3674 119.86C73.5867 119.86 78.9481 114.928 78.9481 106.403C78.9481 97.771 73.5867 92.8385 67.3674 92.8385C61.2018 92.8385 55.8404 97.771 55.8404 106.403C55.8404 114.928 61.2018 119.86 67.3674 119.86ZM67.3674 117.769C62.1669 117.769 58.3066 113.158 58.3066 106.403C58.3066 99.5939 62.1669 94.9294 67.3674 94.9294C72.568 94.9294 76.4818 99.5939 76.4818 106.403C76.4818 113.158 72.568 117.769 67.3674 117.769Z" fill="#1B3F3F"/>
<path d="M93.5395 119.86C97.078 119.86 99.7588 117.876 102.279 114.928H102.386L102.654 119.217H104.638V93.4818H102.279V112.461C99.2762 116.107 97.0244 117.715 93.9684 117.715C89.8401 117.715 88.1245 115.142 88.1245 109.673V93.4818H85.7655V109.995C85.7655 116.643 88.2317 119.86 93.5395 119.86Z" fill="#1B3F3F"/>
<path d="M113.982 119.217H116.341V101.685C118.325 96.8595 121.059 95.0903 123.365 95.0903C124.384 95.0903 124.866 95.1975 125.724 95.5192L126.26 93.3746C125.402 92.9457 124.652 92.8385 123.687 92.8385C120.631 92.8385 118.111 95.0903 116.395 98.2535H116.234L116.02 93.4818H113.982V119.217Z" fill="#1B3F3F"/>
<path d="M136.682 119.86C142.258 119.86 145.367 116.482 145.367 112.622C145.367 107.582 140.971 106.242 136.95 104.741C133.894 103.615 130.891 102.489 130.891 99.5402C130.891 97.1812 132.714 94.8758 136.682 94.8758C139.309 94.8758 141.132 95.8945 142.847 97.1812L144.134 95.5192C142.258 93.9644 139.523 92.8385 136.789 92.8385C131.428 92.8385 128.479 95.9481 128.479 99.7011C128.479 104.097 132.768 105.652 136.682 107.046C139.631 108.119 142.955 109.512 142.955 112.729C142.955 115.464 140.864 117.823 136.843 117.823C133.143 117.823 130.838 116.375 128.64 114.552L127.246 116.321C129.551 118.252 132.875 119.86 136.682 119.86Z" fill="#1B3F3F"/>
<path d="M157.284 119.86C160.662 119.86 163.772 117.984 166.399 115.893H166.559L166.774 119.217H168.811V102.757C168.811 97.2348 166.72 92.8385 160.662 92.8385C156.48 92.8385 152.888 94.8758 151.065 96.1625L152.137 97.9318C153.907 96.6451 156.909 94.9294 160.34 94.9294C165.434 94.9294 166.506 99.1649 166.452 103.079C154.979 104.366 149.832 107.1 149.832 112.783C149.832 117.662 153.21 119.86 157.284 119.86ZM157.713 117.823C154.764 117.823 152.244 116.375 152.244 112.676C152.244 108.601 155.837 106.135 166.452 104.902V113.641C163.235 116.375 160.662 117.823 157.713 117.823Z" fill="#1B3F3F"/>
<defs>
<linearGradient id="paint0_linear" x1="109.936" y1="42.625" x2="63.6479" y2="42.625" gradientUnits="userSpaceOnUse">
<stop stop-color="#59C1E9"/>
<stop offset="1" stop-color="#6BD6B2"/>
</linearGradient>
</defs>
</svg>
