<svg width="117" height="22" viewBox="0 0 117 22" fill="none" xmlns="http://www.w3.org/2000/svg">
<path fill-rule="evenodd" clip-rule="evenodd" d="M10.2231 3.7272C11.2388 3.96341 12.4918 3.2607 11.6876 1.69582C10.8136 -0.00487638 6.98705 -0.0521218 6.06584 0.0187326C5.54292 0.0589528 2.11158 0.330896 1.88495 2.6879C1.74318 4.16222 3.42943 5.58131 5.30167 7.15694C5.80217 7.57815 6.31597 8.01054 6.81168 8.45817C6.6638 8.46513 6.46585 8.49452 5.97608 8.59799C4.299 8.95231 1.17632 10.2229 0.255109 13.5299C-0.666105 16.8368 1.05822 19.6713 3.01875 20.7342C4.97928 21.7972 9.08659 21.9552 11.664 18.5847C14.4276 14.9708 12.7443 11.04 11.0735 9.44345C9.94829 8.36829 8.37978 7.37254 6.91428 6.44217C5.61089 5.61472 4.38898 4.839 3.63289 4.10515C2.02668 2.54617 3.20771 1.22339 4.60135 1.08167C5.99498 0.939941 6.93981 1.15253 7.7193 1.76667C8.38105 2.28805 8.74998 2.67306 9.02688 2.96202C9.41973 3.37199 9.62734 3.58865 10.2231 3.7272ZM7.48291 9.11224C8.34114 9.82086 10.0378 11.8381 10.4913 13.86C11.0582 16.3875 9.77413 19.8597 6.89239 20.1196C4.01064 20.3794 2.4602 17.7102 2.60193 14.8757C2.74365 12.0412 4.71927 9.49017 7.48291 9.11224Z" fill="url(#paint0_linear)"/>
<path d="M29.1055 21.0881C31.1891 21.0881 32.4691 20.3897 33.6002 19.7204L33.0644 18.731C31.9928 19.4876 30.7724 19.9823 29.2246 19.9823C26.0098 19.9823 23.8963 17.4506 23.8368 13.9296H34.136C34.1956 13.5804 34.1956 13.2312 34.1956 12.882C34.1956 8.77895 32.1119 6.42188 28.7185 6.42188C25.5335 6.42188 22.4973 9.21544 22.4973 13.7841C22.4973 18.3527 25.4442 21.0881 29.1055 21.0881ZM23.8368 12.882C24.1345 9.53554 26.3074 7.52767 28.7483 7.52767C31.3082 7.52767 32.9454 9.30274 32.9454 12.882H23.8368Z" fill="#1B3F3F"/>
<path d="M37.9282 20.7389H43.6136C48.0489 20.7389 50.9065 18.8474 50.9065 15.1518C50.9065 12.5037 49.2098 10.9323 46.6796 10.5249V10.4085C48.6442 9.82653 49.7158 8.22606 49.7158 6.21819C49.7158 3.01723 47.1856 1.56226 43.2267 1.56226H37.9282V20.7389ZM39.2975 10.0011V2.66804H42.8397C46.4415 2.66804 48.3465 3.65742 48.3465 6.36368C48.3465 8.60435 46.7094 10.0011 42.6909 10.0011H39.2975ZM39.2975 19.6331V11.1069H43.2565C47.2749 11.1069 49.567 12.4164 49.567 15.1809C49.567 18.2363 47.1559 19.6331 43.2565 19.6331H39.2975Z" fill="#1B3F3F"/>
<path d="M59.8997 21.0881C63.3526 21.0881 66.3292 18.4109 66.3292 13.7841C66.3292 9.09904 63.3526 6.42188 59.8997 6.42188C56.4765 6.42188 53.4999 9.09904 53.4999 13.7841C53.4999 18.4109 56.4765 21.0881 59.8997 21.0881ZM59.8997 19.9532C57.0123 19.9532 54.8691 17.4506 54.8691 13.7841C54.8691 10.0884 57.0123 7.55677 59.8997 7.55677C62.787 7.55677 64.96 10.0884 64.96 13.7841C64.96 17.4506 62.787 19.9532 59.8997 19.9532Z" fill="#1B3F3F"/>
<path d="M74.4304 21.0881C76.395 21.0881 77.8833 20.0114 79.2823 18.4109H79.3419L79.4907 20.7389H80.5921V6.77108H79.2823V17.0723C77.6154 19.0511 76.3652 19.9241 74.6685 19.9241C72.3765 19.9241 71.424 18.5273 71.424 15.5591V6.77108H70.1142V15.7337C70.1142 19.3421 71.4835 21.0881 74.4304 21.0881Z" fill="#1B3F3F"/>
<path d="M85.7803 20.7389H87.09V11.2233C88.1914 8.60435 89.7095 7.64407 90.9894 7.64407C91.555 7.64407 91.8229 7.70227 92.2991 7.87686L92.5968 6.71288C92.1205 6.48008 91.7038 6.42188 91.168 6.42188C89.4713 6.42188 88.0723 7.64407 87.1198 9.36094H87.0305L86.9114 6.77108H85.7803V20.7389Z" fill="#1B3F3F"/>
<path d="M98.3829 21.0881C101.479 21.0881 103.205 19.2548 103.205 17.1596C103.205 14.4243 100.764 13.6968 98.5317 12.882C96.8351 12.2709 95.1681 11.6598 95.1681 10.0593C95.1681 8.77895 96.1802 7.52767 98.3829 7.52767C99.8415 7.52767 100.854 8.08056 101.806 8.77895L102.52 7.87686C101.479 7.03298 99.9605 6.42188 98.4425 6.42188C95.4658 6.42188 93.8286 8.10966 93.8286 10.1466C93.8286 12.5328 96.21 13.3767 98.3829 14.1333C100.02 14.7153 101.866 15.4718 101.866 17.2178C101.866 18.7019 100.705 19.9823 98.4722 19.9823C96.4183 19.9823 95.1384 19.1966 93.9179 18.2072L93.144 19.1675C94.424 20.2151 96.2695 21.0881 98.3829 21.0881Z" fill="#1B3F3F"/>
<path d="M109.821 21.0881C111.697 21.0881 113.423 20.0696 114.882 18.9347H114.971L115.09 20.7389H116.221V11.8053C116.221 8.80805 115.06 6.42188 111.697 6.42188C109.375 6.42188 107.381 7.52767 106.368 8.22606L106.964 9.18634C107.946 8.48795 109.613 7.55677 111.518 7.55677C114.346 7.55677 114.941 9.85563 114.911 11.9799C108.541 12.6783 105.684 14.1624 105.684 17.2469C105.684 19.895 107.559 21.0881 109.821 21.0881ZM110.06 19.9823C108.422 19.9823 107.023 19.1966 107.023 17.1887C107.023 14.9772 109.018 13.6386 114.911 12.9693V17.7125C113.125 19.1966 111.697 19.9823 110.06 19.9823Z" fill="#1B3F3F"/>
<defs>
<linearGradient id="paint0_linear" x1="13.1332" y1="12.0939" x2="-7.08122e-09" y2="12.0939" gradientUnits="userSpaceOnUse">
<stop stop-color="#59C1E9"/>
<stop offset="1" stop-color="#6BD6B2"/>
</linearGradient>
</defs>
</svg>
