<svg width="15" height="16" viewBox="0 0 15 16" fill="none" xmlns="http://www.w3.org/2000/svg">
<path d="M1.26399 0.523935C1.06843 0.7586 0.969721 1.05901 0.987989 1.36393V14.6359C0.969721 14.9409 1.06843 15.2413 1.26399 15.4759L1.30599 15.5179L8.73999 8.08993V7.91594L1.30599 0.481934L1.26399 0.523935Z" fill="url(#paint0_linear)"/>
<path d="M11.2 10.5679L8.73999 8.08988V7.91588L11.2 5.43188L11.254 5.46189L14.2 7.13588C15.04 7.60988 15.04 8.38988 14.2 8.86988L11.266 10.5379L11.2 10.5679Z" fill="url(#paint1_linear)"/>
<path d="M11.2719 10.532L8.73991 8L1.26392 15.476C1.43513 15.6265 1.65355 15.7125 1.88142 15.7191C2.1093 15.7256 2.33231 15.6524 2.51192 15.512L11.2779 10.532" fill="url(#paint2_linear)"/>
<path d="M11.2721 5.46798L2.50606 0.48798C2.32645 0.347588 2.10344 0.274351 1.87557 0.280924C1.64769 0.287498 1.42927 0.373469 1.25806 0.523981L8.74006 7.99998L11.2721 5.46798Z" fill="url(#paint3_linear)"/>
<path opacity="0.2" d="M11.1999 10.478L2.50592 15.428C2.33269 15.5575 2.12221 15.6275 1.90592 15.6275C1.68963 15.6275 1.47914 15.5575 1.30592 15.428L1.26392 15.47L1.30592 15.512C1.47875 15.6425 1.68938 15.713 1.90592 15.713C2.12245 15.713 2.33308 15.6425 2.50592 15.512L11.2719 10.532L11.1999 10.478Z" fill="black"/>
<path opacity="0.12" d="M1.26399 15.392C1.06843 15.1573 0.969721 14.8569 0.987989 14.552V14.642C0.969721 14.9469 1.06843 15.2473 1.26399 15.482L1.30599 15.44L1.26399 15.392ZM14.2 8.78L11.2 10.478L11.254 10.532L14.2 8.864C14.3671 8.78547 14.5106 8.66425 14.616 8.51255C14.7213 8.36086 14.7848 8.18406 14.8 8C14.7662 8.16722 14.6946 8.32449 14.5906 8.4597C14.4866 8.59492 14.353 8.70449 14.2 8.78Z" fill="black"/>
<path opacity="0.25" d="M2.50593 0.571719L14.1999 7.21972C14.3529 7.29523 14.4865 7.4048 14.5905 7.54001C14.6946 7.67523 14.7662 7.83249 14.7999 7.99972C14.7847 7.81566 14.7213 7.63886 14.6159 7.48717C14.5106 7.33547 14.3671 7.21424 14.1999 7.13572L2.50593 0.487718C1.66593 0.0137181 0.981934 0.409719 0.981934 1.36972V1.45972C0.999934 0.493719 1.67193 0.0977189 2.50593 0.571719Z" fill="white"/>
<defs>
<linearGradient id="paint0_linear" x1="8.07999" y1="1.22593" x2="-1.98801" y2="11.2939" gradientUnits="userSpaceOnUse">
<stop stop-color="#00A0FF"/>
<stop offset="0.01" stop-color="#00A1FF"/>
<stop offset="0.26" stop-color="#00BEFF"/>
<stop offset="0.51" stop-color="#00D2FF"/>
<stop offset="0.76" stop-color="#00DFFF"/>
<stop offset="1" stop-color="#00E3FF"/>
</linearGradient>
<linearGradient id="paint1_linear" x1="15.298" y1="7.99988" x2="0.783991" y2="7.99988" gradientUnits="userSpaceOnUse">
<stop stop-color="#FFE000"/>
<stop offset="0.41" stop-color="#FFBD00"/>
<stop offset="0.78" stop-color="#FFA500"/>
<stop offset="1" stop-color="#FF9C00"/>
</linearGradient>
<linearGradient id="paint2_linear" x1="9.89791" y1="9.38" x2="-3.75808" y2="23.03" gradientUnits="userSpaceOnUse">
<stop stop-color="#FF3A44"/>
<stop offset="1" stop-color="#C31162"/>
</linearGradient>
<linearGradient id="paint3_linear" x1="-0.619944" y1="-3.89202" x2="5.47606" y2="2.20398" gradientUnits="userSpaceOnUse">
<stop stop-color="#32A071"/>
<stop offset="0.07" stop-color="#2DA771"/>
<stop offset="0.48" stop-color="#15CF74"/>
<stop offset="0.8" stop-color="#06E775"/>
<stop offset="1" stop-color="#00F076"/>
</linearGradient>
</defs>
</svg>
