<svg width="15" height="16" viewBox="0 0 15 16" fill="none" xmlns="http://www.w3.org/2000/svg">
<path d="M1.29724 15.6191L8.64758 7.99534L1.30339 0.385254C1.10723 0.503735 0.98584 0.778062 0.98584 1.13715V14.8745C0.988471 15.2336 1.10547 15.4878 1.29724 15.6191Z" fill="white"/>
<path d="M8.91074 7.78487L11.1002 5.51369L2.18406 0.442733C2.03392 0.352253 1.86338 0.304461 1.6897 0.304199L8.90986 7.78395L8.91074 7.78487Z" fill="white"/>
<path d="M8.91076 8.20679L1.66772 15.7194C1.84952 15.7225 2.02858 15.6733 2.18496 15.5772L11.1187 10.4925L8.91076 8.20679Z" fill="white"/>
<path d="M14.3303 7.35383L11.3633 5.66321L9.11401 7.99636L11.38 10.3441L14.3294 8.65803C14.9566 8.29986 14.9566 7.71019 14.3303 7.35383Z" fill="white"/>
</svg>
