<svg aria-hidden="true" style="position: absolute; width: 0; height: 0; overflow: hidden;" version="1.1" xmlns="http://www.w3.org/2000/svg" xmlns:xlink="http://www.w3.org/1999/xlink">
<defs>
<symbol id="icon-twitter" viewBox="0 0 22 24">
<path d="M21.696 5.464c-0.589 0.857-1.326 1.621-2.17 2.237 0.013 0.188 0.013 0.375 0.013 0.562 0 5.719-4.353 12.308-12.308 12.308-2.451 0-4.728-0.71-6.643-1.942 0.348 0.040 0.683 0.054 1.045 0.054 2.022 0 3.884-0.683 5.371-1.848-1.902-0.040-3.496-1.286-4.045-3 0.268 0.040 0.536 0.067 0.817 0.067 0.388 0 0.777-0.054 1.138-0.147-1.982-0.402-3.469-2.143-3.469-4.246v-0.054c0.576 0.321 1.246 0.522 1.955 0.549-1.165-0.777-1.929-2.103-1.929-3.603 0-0.804 0.214-1.54 0.589-2.183 2.129 2.625 5.33 4.339 8.92 4.527-0.067-0.321-0.107-0.656-0.107-0.991 0-2.384 1.929-4.326 4.326-4.326 1.246 0 2.371 0.522 3.161 1.366 0.978-0.188 1.915-0.549 2.746-1.045-0.321 1.004-1.004 1.848-1.902 2.384 0.871-0.094 1.714-0.335 2.491-0.67z"></path>
</symbol>
<symbol id="icon-facebook" viewBox="0 0 14 24">
<path d="M12.844 0.161v3.536h-2.103c-1.647 0-1.955 0.79-1.955 1.929v2.531h3.924l-0.522 3.964h-3.402v10.165h-4.098v-10.165h-3.415v-3.964h3.415v-2.92c0-3.388 2.076-5.237 5.103-5.237 1.446 0 2.692 0.107 3.054 0.161z"></path>
</symbol>
<symbol id="icon-linkedin" viewBox="0 0 21 24">
<path d="M4.674 8.371v13.272h-4.42v-13.272h4.42zM4.955 4.272c0.013 1.272-0.951 2.29-2.491 2.29v0h-0.027c-1.487 0-2.438-1.018-2.438-2.29 0-1.299 0.991-2.29 2.491-2.29 1.513 0 2.451 0.991 2.464 2.29zM20.571 14.036v7.607h-4.406v-7.098c0-1.781-0.643-3-2.237-3-1.219 0-1.942 0.817-2.263 1.607-0.107 0.295-0.147 0.683-0.147 1.085v7.406h-4.406c0.054-12.027 0-13.272 0-13.272h4.406v1.929h-0.027c0.576-0.911 1.621-2.237 4.004-2.237 2.906 0 5.076 1.902 5.076 5.973z"></path>
</symbol>
<symbol id="icon-instagram" viewBox="0 0 21 24">
<path d="M13.714 12c0-1.888-1.54-3.429-3.429-3.429s-3.429 1.54-3.429 3.429 1.54 3.429 3.429 3.429 3.429-1.54 3.429-3.429zM15.563 12c0 2.92-2.357 5.277-5.277 5.277s-5.277-2.357-5.277-5.277 2.357-5.277 5.277-5.277 5.277 2.357 5.277 5.277zM17.009 6.509c0 0.683-0.549 1.232-1.232 1.232s-1.232-0.549-1.232-1.232 0.549-1.232 1.232-1.232 1.232 0.549 1.232 1.232zM10.286 3.563c-1.5 0-4.714-0.121-6.067 0.415-0.469 0.188-0.817 0.415-1.179 0.777s-0.589 0.71-0.777 1.179c-0.536 1.353-0.415 4.567-0.415 6.067s-0.121 4.714 0.415 6.067c0.188 0.469 0.415 0.817 0.777 1.179s0.71 0.589 1.179 0.777c1.353 0.536 4.567 0.415 6.067 0.415s4.714 0.121 6.067-0.415c0.469-0.188 0.817-0.415 1.179-0.777s0.589-0.71 0.777-1.179c0.536-1.353 0.415-4.567 0.415-6.067s0.121-4.714-0.415-6.067c-0.188-0.469-0.415-0.817-0.777-1.179s-0.71-0.589-1.179-0.777c-1.353-0.536-4.567-0.415-6.067-0.415zM20.571 12c0 1.42 0.013 2.826-0.067 4.246-0.080 1.647-0.455 3.107-1.661 4.313s-2.665 1.58-4.313 1.661c-1.42 0.080-2.826 0.067-4.246 0.067s-2.826 0.013-4.246-0.067c-1.647-0.080-3.107-0.455-4.313-1.661s-1.58-2.665-1.661-4.313c-0.080-1.42-0.067-2.826-0.067-4.246s-0.013-2.826 0.067-4.246c0.080-1.647 0.455-3.107 1.661-4.313s2.665-1.58 4.313-1.661c1.42-0.080 2.826-0.067 4.246-0.067s2.826-0.013 4.246 0.067c1.647 0.080 3.107 0.455 4.313 1.661s1.58 2.665 1.661 4.313c0.080 1.42 0.067 2.826 0.067 4.246z"></path>
</symbol>
<symbol id="arrow-down" viewBox="0 0 24 24">
<path d="M7.406 7.828l4.594 4.594 4.594-4.594 1.406 1.406-6 6-6-6z"></path>
</symbol>
<symbol id="icon-close" viewBox="0 0 20 20">
<path d="M10 8.586l-7.071-7.071-1.414 1.414 7.071 7.071-7.071 7.071 1.414 1.414 7.071-7.071 7.071 7.071 1.414-1.414-7.071-7.071 7.071-7.071-1.414-1.414-7.071 7.071z"></path>
</symbol>
</defs>
</svg>
