<svg width="21" height="15" viewBox="0 0 21 15" fill="none" xmlns="http://www.w3.org/2000/svg">
<rect x="0.25" y="0.25" width="20.5" height="14.5" rx="1.75" fill="white" stroke="#F5F5F5" stroke-width="0.5"/>
<mask id="mask0" mask-type="alpha" maskUnits="userSpaceOnUse" x="0" y="0" width="21" height="15">
<rect x="0.25" y="0.25" width="20.5" height="14.5" rx="1.75" fill="white" stroke="white" stroke-width="0.5"/>
</mask>
<g mask="url(#mask0)">
<path d="M21 15V0H0V15H21Z" fill="#007859"/>
<path d="M10.5001 10.4511C10.5845 10.4511 10.6689 10.4474 10.7313 10.4438C10.757 10.4401 10.7791 10.4621 10.7791 10.4915V10.5245C10.9002 10.5135 11.0544 10.4915 11.1718 10.4621L11.1608 10.4291C11.1535 10.4034 11.1645 10.3777 11.1902 10.3704C11.3223 10.3373 11.5205 10.2712 11.6343 10.2272C11.66 10.2162 11.6857 10.2309 11.6931 10.2566L11.7041 10.2896C11.8142 10.2419 11.9537 10.1721 12.0601 10.1097L12.0418 10.0804C12.0271 10.0583 12.0308 10.029 12.0528 10.018C12.1703 9.94822 12.3354 9.82342 12.4309 9.74266C12.4529 9.72431 12.4823 9.73165 12.4969 9.75L12.5153 9.7757C12.6071 9.69494 12.7172 9.58482 12.7979 9.49306L12.7722 9.47103C12.7502 9.45635 12.7429 9.42698 12.7612 9.40863C12.8493 9.30585 12.9705 9.137 13.0365 9.03055C13.0512 9.00852 13.0806 9.00485 13.1026 9.01954L13.1283 9.03789C13.1907 8.93511 13.2605 8.79562 13.3082 8.68183L13.2751 8.67082C13.2494 8.66348 13.2348 8.63778 13.2458 8.61209C13.2972 8.48729 13.3596 8.28907 13.3889 8.16794C13.3963 8.14224 13.422 8.12756 13.4477 8.1349L13.4807 8.14591C13.5064 8.02845 13.5321 7.87428 13.5431 7.75315H13.5101C13.4844 7.75315 13.4623 7.73479 13.4623 7.7091C13.4734 7.57328 13.4734 7.36405 13.4623 7.24292C13.4587 7.21723 13.4807 7.1952 13.5101 7.1952H13.5431C13.5321 7.07407 13.5101 6.9199 13.4807 6.80244L13.4477 6.81345C13.422 6.82079 13.3963 6.80978 13.3889 6.78408C13.3559 6.65194 13.2898 6.45372 13.2458 6.33993C13.2348 6.31424 13.2494 6.28854 13.2751 6.2812L13.3082 6.27019C13.2605 6.16007 13.1907 6.02058 13.1283 5.91413L13.0989 5.93248C13.0769 5.94717 13.0476 5.9435 13.0365 5.92147C12.9668 5.80401 12.842 5.63883 12.7612 5.54339C12.7429 5.52504 12.7502 5.492 12.7686 5.47732L12.7943 5.45896C12.7135 5.3672 12.6034 5.25708 12.5116 5.17632L12.4896 5.20202C12.4749 5.22404 12.4456 5.23138 12.4272 5.21303C12.3244 5.12493 12.1556 5.0038 12.0491 4.93773C12.0271 4.92304 12.0234 4.89368 12.0381 4.87165L12.0565 4.84596C11.9537 4.78356 11.8142 4.71381 11.7004 4.66609L11.6894 4.69913C11.6821 4.72483 11.6564 4.73951 11.6307 4.7285C11.5059 4.67711 11.3076 4.6147 11.1865 4.58534C11.1608 4.578 11.1461 4.5523 11.1535 4.52661L11.1645 4.49357C11.047 4.46788 10.8929 4.44218 10.7717 4.43117V4.46421C10.7717 4.4899 10.7534 4.51193 10.7277 4.51193C10.5919 4.50091 10.3826 4.50091 10.2615 4.51193C10.2358 4.5156 10.2138 4.49357 10.2138 4.46421V4.43117C10.0926 4.44218 9.93847 4.46421 9.82101 4.49357L9.83202 4.52661C9.83936 4.5523 9.82835 4.578 9.80266 4.58534C9.67051 4.61838 9.47229 4.68445 9.3585 4.7285C9.33281 4.73951 9.30711 4.72483 9.29977 4.69913L9.28876 4.66609C9.17864 4.71381 9.03915 4.78356 8.9327 4.84596L8.95106 4.87532C8.96574 4.89735 8.96207 4.92671 8.94004 4.93773C8.82258 5.00747 8.6574 5.13227 8.56196 5.21303C8.54361 5.23138 8.51057 5.22404 8.49589 5.20569L8.47754 5.17999C8.38577 5.26075 8.27565 5.37087 8.19489 5.46263L8.22059 5.48466C8.24261 5.49934 8.24995 5.52871 8.2316 5.54706C8.1435 5.64984 8.02237 5.81869 7.9563 5.92514C7.94162 5.94717 7.91225 5.95084 7.89022 5.93615L7.86453 5.9178C7.80213 6.02058 7.73238 6.16007 7.68467 6.27386L7.7177 6.28487C7.7434 6.29221 7.75808 6.31791 7.74707 6.3436C7.69568 6.4684 7.63328 6.66662 7.60391 6.78776C7.59657 6.81345 7.57087 6.82813 7.54518 6.82079L7.51214 6.80978C7.48645 6.92724 7.46075 7.08141 7.44974 7.20254H7.48278C7.50847 7.20254 7.5305 7.2209 7.5305 7.24659C7.51949 7.38241 7.51949 7.59164 7.5305 7.71277C7.53417 7.73846 7.51214 7.76049 7.48278 7.76049H7.44974C7.46075 7.88162 7.48278 8.03579 7.51214 8.15325L7.54518 8.14224C7.57087 8.1349 7.59657 8.14591 7.60391 8.17161C7.63695 8.30375 7.70302 8.50197 7.74707 8.61576C7.75808 8.64145 7.7434 8.66715 7.7177 8.67449L7.68467 8.6855C7.73238 8.79562 7.80213 8.93511 7.86453 9.04156L7.8939 9.02321C7.91592 9.00852 7.94529 9.0122 7.9563 9.03422C8.02604 9.15168 8.15084 9.31686 8.2316 9.4123C8.24995 9.43433 8.24261 9.46369 8.22426 9.47837L8.19856 9.49673C8.27932 9.58849 8.38944 9.69862 8.48121 9.77937L8.50323 9.75368C8.51791 9.73165 8.54728 9.72431 8.56563 9.74266C8.66841 9.83076 8.83726 9.95189 8.94371 10.018C8.96574 10.0326 8.96941 10.062 8.95473 10.084L8.93637 10.1097C9.03915 10.1721 9.17864 10.2419 9.29243 10.2896L9.30344 10.2566C9.31078 10.2309 9.33648 10.2162 9.36217 10.2272C9.48698 10.2786 9.6852 10.341 9.80633 10.3704C9.83202 10.3777 9.84671 10.4034 9.83936 10.4291L9.82835 10.4621C9.94581 10.4878 10.1 10.5135 10.2211 10.5245V10.4915C10.2211 10.4658 10.2395 10.4438 10.2652 10.4438C10.3312 10.4511 10.4157 10.4511 10.5001 10.4511V10.7044C10.423 10.7044 10.3459 10.7007 10.2688 10.697C10.2431 10.6934 10.2211 10.6493 10.2211 10.6236C10.089 10.6126 9.90177 10.5686 9.79899 10.5429L9.78797 10.5796C9.78063 10.6053 9.75494 10.6163 9.72924 10.6089C9.5971 10.5759 9.43559 10.5282 9.28876 10.4658C9.26306 10.4548 9.24838 10.4291 9.25939 10.4071L9.27041 10.3704C9.14927 10.319 8.98042 10.2309 8.89233 10.1758L8.8703 10.2088C8.85562 10.2309 8.82625 10.2345 8.80423 10.2199C8.69044 10.1501 8.54728 10.051 8.42982 9.94822C8.41146 9.92987 8.40412 9.90417 8.4188 9.88215L8.44083 9.84911C8.34172 9.76102 8.20591 9.62887 8.13983 9.54812L8.1068 9.57014C8.08477 9.58482 8.05541 9.58115 8.04072 9.55913C7.95263 9.45635 7.84985 9.32053 7.76909 9.18472C7.75441 9.16269 7.75808 9.13333 7.7801 9.11865L7.81314 9.09662C7.74707 8.98283 7.65897 8.81398 7.62226 8.71854L7.58556 8.72955C7.55986 8.73689 7.53417 8.72221 7.52683 8.70019C7.47544 8.57538 7.42038 8.41387 7.38367 8.2597C7.37633 8.23401 7.39101 8.20831 7.41303 8.20097L7.44974 8.18996C7.42038 8.06149 7.39101 7.87428 7.38367 7.76783H7.34329C7.3176 7.76783 7.29557 7.74581 7.29557 7.72011C7.28456 7.5843 7.28089 7.41544 7.29557 7.2576C7.29924 7.23191 7.3176 7.20989 7.34329 7.20989H7.38367C7.39468 7.07774 7.42405 6.89053 7.44974 6.78776L7.41303 6.77674C7.38734 6.7694 7.37633 6.74371 7.38367 6.71801C7.41671 6.58587 7.46442 6.42436 7.52683 6.27753C7.53784 6.25183 7.56353 6.23715 7.58556 6.24816L7.62226 6.25918C7.67365 6.13804 7.76175 5.96919 7.81681 5.88109L7.78377 5.85907C7.76175 5.84439 7.75808 5.81502 7.77276 5.793C7.84251 5.67921 7.94162 5.53605 8.04439 5.41859C8.06275 5.40023 8.08844 5.39289 8.11047 5.40757L8.1435 5.4296C8.2316 5.33049 8.36374 5.19467 8.4445 5.1286L8.42248 5.09557C8.40779 5.07354 8.41146 5.04418 8.43349 5.02949C8.53627 4.9414 8.67208 4.83862 8.8079 4.75786C8.82992 4.74318 8.85929 4.74685 8.87397 4.76887L8.896 4.80191C9.00979 4.73584 9.17864 4.64774 9.27408 4.61103L9.26306 4.57433C9.25572 4.54863 9.27041 4.52294 9.29243 4.5156C9.41723 4.46421 9.57874 4.40915 9.73291 4.37244C9.75861 4.3651 9.7843 4.37978 9.79165 4.4018L9.80266 4.43851C9.93113 4.40915 10.1183 4.37978 10.2248 4.37244V4.33206C10.2248 4.30637 10.2468 4.28434 10.2725 4.28434C10.4083 4.27333 10.5772 4.26966 10.735 4.28434C10.7607 4.28801 10.7827 4.30637 10.7827 4.33206V4.37244C10.9149 4.38345 11.1021 4.41282 11.2049 4.43851L11.2159 4.4018C11.2232 4.37611 11.2489 4.3651 11.2746 4.37244C11.4068 4.40548 11.5683 4.45319 11.7151 4.5156C11.7408 4.52661 11.7555 4.5523 11.7445 4.57433L11.7334 4.61103C11.8546 4.66242 12.0234 4.75052 12.1115 4.80558L12.1335 4.77254C12.1482 4.75052 12.1776 4.74685 12.1996 4.76153C12.3134 4.83128 12.4566 4.93038 12.574 5.03316C12.5924 5.05152 12.5997 5.07721 12.585 5.09924L12.563 5.13227C12.6621 5.22037 12.7979 5.35251 12.864 5.43327L12.8971 5.41125C12.9191 5.39656 12.9484 5.40023 12.9631 5.42226C13.0512 5.52504 13.154 5.66085 13.2348 5.79667C13.2494 5.81869 13.2458 5.84806 13.2237 5.86274L13.1907 5.88476C13.2568 5.99856 13.3449 6.16741 13.3816 6.26285L13.4183 6.25183C13.444 6.24449 13.4697 6.25918 13.477 6.2812C13.5284 6.406 13.5835 6.56751 13.6202 6.72168C13.6275 6.74738 13.6128 6.77307 13.5908 6.78041L13.5541 6.79143C13.5835 6.9199 13.6128 7.10711 13.6202 7.21356H13.6606C13.6863 7.21356 13.7083 7.23558 13.7083 7.26127C13.7193 7.39709 13.723 7.56594 13.7083 7.72378C13.7046 7.74948 13.6863 7.7715 13.6606 7.7715H13.6202C13.6092 7.90365 13.5798 8.09085 13.5541 8.19363L13.5908 8.20464C13.6165 8.21198 13.6275 8.23768 13.6202 8.26337C13.5871 8.39552 13.5394 8.55703 13.477 8.70386C13.466 8.72955 13.4403 8.74423 13.4183 8.73322L13.3816 8.72221C13.3302 8.84334 13.2421 9.0122 13.187 9.10029L13.2201 9.12232C13.2421 9.137 13.2458 9.16636 13.2311 9.18839C13.1613 9.30218 13.0622 9.44534 12.9595 9.5628C12.9411 9.58115 12.9154 9.58849 12.8934 9.57381L12.8603 9.55179C12.7722 9.6509 12.6401 9.78671 12.5593 9.85278L12.5814 9.88582C12.5961 9.90784 12.5924 9.93721 12.5704 9.95189C12.4676 10.04 12.3318 10.1428 12.196 10.2235C12.1739 10.2382 12.1446 10.2345 12.1299 10.2125L12.1079 10.1795C11.9941 10.2455 11.8252 10.3336 11.7298 10.3704L11.7408 10.4071C11.7481 10.4328 11.7334 10.4584 11.7114 10.4658C11.5866 10.5172 11.4251 10.5722 11.2709 10.6089C11.2452 10.6163 11.2195 10.6016 11.2122 10.5796L11.2012 10.5429C11.0727 10.5722 10.8855 10.6016 10.7791 10.6089V10.6493C10.7791 10.675 10.757 10.697 10.7313 10.697C10.6616 10.7007 10.5808 10.7044 10.5001 10.7044V10.4511Z" fill="#FFD239"/>
<path d="M10.6725 4.46052C10.6909 4.46052 10.7092 4.44951 10.7092 4.43483V4.3504C10.7092 4.33572 10.6945 4.32471 10.6725 4.32471H10.3311C10.3128 4.32471 10.2944 4.33572 10.2944 4.3504V4.43483C10.2944 4.44951 10.3091 4.46052 10.3311 4.46052H10.6725Z" fill="#007859"/>
<path d="M9.72928 4.55632C9.74763 4.54898 9.75864 4.5343 9.75497 4.51962L9.72928 4.43886C9.72561 4.42418 9.70725 4.4205 9.6889 4.42418L9.36221 4.53063C9.34386 4.53797 9.33285 4.55265 9.33652 4.56734L9.36221 4.64809C9.36588 4.66278 9.38424 4.66645 9.40259 4.66278L9.72928 4.55632Z" fill="#007859"/>
<path d="M8.86289 4.93771C8.87757 4.9267 8.88491 4.90835 8.87757 4.89734L8.82618 4.82759C8.81884 4.81658 8.79681 4.81658 8.78213 4.82759L8.50316 5.02948C8.48848 5.04049 8.48113 5.05885 8.48848 5.06986L8.53987 5.1396C8.54721 5.15061 8.56923 5.15061 8.58391 5.1396L8.86289 4.93771Z" fill="#007859"/>
<path d="M8.15803 5.5692C8.16904 5.55451 8.16904 5.53249 8.15803 5.52515L8.08829 5.47376C8.07727 5.46642 8.05892 5.47009 8.04791 5.48844L7.84603 5.76741C7.83502 5.78209 7.83502 5.80412 7.84603 5.81146L7.91577 5.86285C7.92678 5.87019 7.94513 5.86652 7.95615 5.84817L8.15803 5.5692Z" fill="#007859"/>
<path d="M7.68093 6.38416C7.68827 6.36581 7.68093 6.34745 7.66624 6.34378L7.58549 6.31809C7.57081 6.31442 7.55612 6.32543 7.54878 6.34378L7.44233 6.67048C7.43499 6.68883 7.44233 6.70718 7.45702 6.71085L7.53777 6.73655C7.55245 6.74022 7.56714 6.72921 7.57448 6.71085L7.68093 6.38416Z" fill="#007859"/>
<path d="M7.47896 7.30917C7.47896 7.29081 7.46794 7.27246 7.45326 7.27246H7.36883C7.35415 7.27246 7.34314 7.28714 7.34314 7.30917V7.65054C7.34314 7.6689 7.35415 7.68725 7.36883 7.68725H7.45326C7.46794 7.68725 7.47896 7.67257 7.47896 7.65054V7.30917Z" fill="#007859"/>
<path d="M7.5745 8.25247C7.56716 8.23412 7.55248 8.22311 7.5378 8.22678L7.45705 8.25247C7.44236 8.25614 7.43869 8.2745 7.44236 8.29285L7.54881 8.61954C7.55615 8.6379 7.57083 8.64891 7.58552 8.64524L7.66627 8.61954C7.68095 8.61587 7.68462 8.59752 7.68095 8.57917L7.5745 8.25247Z" fill="#007859"/>
<path d="M7.95615 9.11888C7.94513 9.1042 7.92678 9.09686 7.91577 9.1042L7.84603 9.15559C7.83502 9.16293 7.83502 9.18495 7.84603 9.19964L8.04791 9.47861C8.05892 9.49329 8.07727 9.50063 8.08829 9.49329L8.15803 9.4419C8.16904 9.43456 8.16904 9.41254 8.15803 9.39785L7.95615 9.11888Z" fill="#007859"/>
<path d="M8.58751 9.82369C8.57283 9.81268 8.5508 9.81268 8.54346 9.82369L8.49207 9.89343C8.48473 9.90444 8.4884 9.92279 8.50675 9.9338L8.78573 10.1357C8.80041 10.1467 8.82243 10.1467 8.82977 10.1357L8.88116 10.0659C8.8885 10.0549 8.88483 10.0366 8.86648 10.0256L8.58751 9.82369Z" fill="#007859"/>
<path d="M9.40259 10.3007C9.38424 10.2934 9.36588 10.3007 9.36221 10.3154L9.33652 10.3962C9.33285 10.4109 9.34386 10.4255 9.36221 10.4329L9.6889 10.5393C9.70725 10.5467 9.72561 10.5393 9.72928 10.5246L9.75497 10.4439C9.75864 10.4292 9.74763 10.4145 9.72928 10.4072L9.40259 10.3007Z" fill="#007859"/>
<path d="M10.3275 10.5029C10.3091 10.5029 10.2908 10.5139 10.2908 10.5286V10.6131C10.2908 10.6277 10.3055 10.6387 10.3275 10.6387H10.6689C10.6872 10.6387 10.7056 10.6277 10.7056 10.6131V10.5286C10.7056 10.5139 10.6909 10.5029 10.6689 10.5029H10.3275Z" fill="#007859"/>
<path d="M11.2709 10.4071C11.2526 10.4144 11.2415 10.4291 11.2452 10.4438L11.2709 10.5246C11.2746 10.5392 11.2929 10.5429 11.3113 10.5392L11.638 10.4328C11.6563 10.4255 11.6673 10.4108 11.6637 10.3961L11.638 10.3153C11.6343 10.3006 11.6159 10.297 11.5976 10.3006L11.2709 10.4071Z" fill="#007859"/>
<path d="M12.1372 10.0256C12.1225 10.0366 12.1152 10.0549 12.1225 10.0659L12.1739 10.1357C12.1812 10.1467 12.2033 10.1467 12.2179 10.1357L12.4969 9.9338C12.5116 9.92279 12.5189 9.90444 12.5116 9.89343L12.4602 9.82369C12.4529 9.81268 12.4308 9.81268 12.4162 9.82369L12.1372 10.0256Z" fill="#007859"/>
<path d="M12.8419 9.39436C12.8309 9.40905 12.8309 9.43107 12.8419 9.43841L12.9116 9.4898C12.9226 9.49714 12.941 9.49347 12.952 9.47512L13.1539 9.19615C13.1649 9.18147 13.1649 9.15944 13.1539 9.1521L13.0841 9.10071C13.0731 9.09337 13.0548 9.09704 13.0438 9.1154L12.8419 9.39436Z" fill="#007859"/>
<path d="M13.3193 8.57917C13.3119 8.59752 13.3193 8.61587 13.334 8.61954L13.4147 8.64524C13.4294 8.64891 13.4441 8.6379 13.4514 8.61954L13.5579 8.29285C13.5652 8.2745 13.5579 8.25614 13.5432 8.25247L13.4625 8.22678C13.4478 8.22311 13.4331 8.23412 13.4257 8.25247L13.3193 8.57917Z" fill="#007859"/>
<path d="M13.5209 7.6542C13.5209 7.67256 13.5319 7.69091 13.5466 7.69091H13.631C13.6457 7.69091 13.6567 7.67623 13.6567 7.6542V7.31283C13.6567 7.29448 13.6457 7.27612 13.631 7.27612H13.5466C13.5319 7.27612 13.5209 7.29081 13.5209 7.31283V7.6542Z" fill="#007859"/>
<path d="M13.4255 6.71085C13.4329 6.72921 13.4475 6.74022 13.4622 6.73655L13.543 6.71085C13.5577 6.70718 13.5613 6.68883 13.5577 6.67048L13.4512 6.34378C13.4439 6.32543 13.4292 6.31442 13.4145 6.31809L13.3338 6.34378C13.3191 6.34745 13.3154 6.36581 13.3191 6.38416L13.4255 6.71085Z" fill="#007859"/>
<path d="M13.0438 5.84458C13.0548 5.85926 13.0731 5.8666 13.0841 5.85926L13.1539 5.80787C13.1649 5.80053 13.1649 5.7785 13.1539 5.76382L12.952 5.48485C12.941 5.47017 12.9226 5.46282 12.9116 5.47017L12.8419 5.52155C12.8309 5.5289 12.8309 5.55092 12.8419 5.5656L13.0438 5.84458Z" fill="#007859"/>
<path d="M12.4124 5.1396C12.4271 5.15061 12.4491 5.15061 12.4565 5.1396L12.5079 5.06986C12.5152 5.05885 12.5115 5.04049 12.4932 5.02948L12.2142 4.82759C12.1995 4.81658 12.1775 4.81658 12.1702 4.82759L12.1188 4.89734C12.1114 4.90835 12.1151 4.9267 12.1335 4.93771L12.4124 5.1396Z" fill="#007859"/>
<path d="M11.5976 4.66286C11.6159 4.6702 11.6343 4.66286 11.638 4.64818L11.6637 4.56742C11.6673 4.55274 11.6563 4.53806 11.638 4.53072L11.3113 4.42427C11.2929 4.41693 11.2746 4.42427 11.2709 4.43895L11.2452 4.51971C11.2415 4.53439 11.2526 4.54907 11.2709 4.55641L11.5976 4.66286Z" fill="#007859"/>
<path d="M10.4925 4.92349C10.3456 4.99323 10.331 4.98222 10.3603 5.03361C10.386 5.085 10.4191 5.05563 10.5402 5.00424C10.632 4.96387 10.6907 4.95285 10.665 4.89045C10.6393 4.83172 10.6209 4.86109 10.4925 4.92349Z" fill="white"/>
<path d="M9.89437 5.01883C9.82096 5.09592 9.83931 5.0849 9.89804 5.14731C9.95677 5.20971 9.96044 5.20971 10.0155 5.15465C10.0669 5.09959 10.0926 5.09592 10.0302 5.0225C9.96779 4.95276 9.96045 4.95276 9.89437 5.01883Z" fill="white"/>
<path d="M9.65934 4.98916C9.5896 5.0589 9.60795 5.05156 9.66301 5.10662C9.71808 5.16168 9.72175 5.16535 9.77314 5.11396C9.82453 5.06257 9.84656 5.06257 9.78782 4.99283C9.72909 4.93043 9.72175 4.93043 9.65934 4.98916Z" fill="white"/>
<path d="M10.5809 5.1948C10.5038 5.16544 10.3937 5.11038 10.2175 5.15076C10.1257 5.17278 10.0633 5.26455 10.1734 5.34163C10.2835 5.41872 10.401 5.52517 10.4708 5.59491C10.5368 5.66098 10.7093 5.68668 10.8305 5.60592C10.9112 5.55086 10.9149 5.42973 10.8231 5.37834C10.7314 5.32695 10.6616 5.38201 10.6433 5.42973C10.6176 5.49213 10.6983 5.54352 10.7057 5.49213C10.7167 5.42239 10.8305 5.40771 10.7607 5.50314C10.7387 5.53618 10.6469 5.60959 10.5478 5.53618C10.4487 5.46277 10.4267 5.45542 10.3496 5.39669C10.2725 5.33796 10.1184 5.22784 10.368 5.22417C10.6176 5.21683 10.4818 5.35264 10.3019 5.42239C10.1257 5.49213 10.0193 5.41138 9.87243 5.33429C9.72193 5.25721 9.68523 5.35999 9.65586 5.44074C9.62282 5.5215 9.50169 5.49213 9.45397 5.47011C9.40625 5.44808 9.31816 5.44808 9.40258 5.56922C9.48701 5.68668 9.69624 5.59491 9.7256 5.53251C9.76965 5.4334 9.81737 5.39669 10.0046 5.50681C10.1074 5.56922 10.3019 5.56922 10.401 5.47378C10.5001 5.37834 10.5735 5.33429 10.6102 5.31961C10.6396 5.30126 10.6616 5.22417 10.5809 5.1948Z" fill="white"/>
<path d="M10.9992 5.01868C10.9808 4.95995 10.8523 5.03337 10.8597 5.07741C10.9111 5.31601 10.9771 5.52891 11.0432 5.6427C11.1093 5.75649 11.2268 5.77485 11.4066 5.67941C11.5902 5.58764 11.7627 5.4922 11.6085 5.39309C11.4543 5.29031 11.1607 5.31601 11.0909 5.51056C11.0249 5.7051 10.9698 5.93269 11.0285 5.95838C11.0873 5.98408 11.146 5.82991 11.1607 5.70143C11.1717 5.57296 11.1533 5.46651 11.3552 5.44448C11.5535 5.42246 11.5718 5.48853 11.48 5.54726C11.3883 5.60599 11.168 5.69409 11.1387 5.5546C11.1093 5.41879 11.0395 5.14349 10.9992 5.01868Z" fill="white"/>
<path d="M11.4361 5.75631C11.3737 5.81504 11.3701 5.84074 11.4325 5.88846C11.4949 5.93618 11.5059 5.91415 11.5462 5.87745C11.5866 5.84074 11.5976 5.81137 11.5499 5.76732C11.5022 5.72328 11.4838 5.71226 11.4361 5.75631Z" fill="white"/>
<path d="M11.7406 6.0136C11.6562 6.13474 11.5167 6.08335 11.4764 6.14208C11.4433 6.18613 11.4286 6.39902 11.4947 6.3146C11.6085 6.16777 11.737 6.19714 11.7663 6.14575C11.792 6.09436 11.7957 5.92918 11.7406 6.0136Z" fill="white"/>
<path d="M9.61162 5.89612C9.663 5.94384 9.7768 6.0356 9.82819 5.93649C9.85388 5.8851 9.88325 5.87042 9.93097 5.91447C9.97869 5.95852 10.0741 5.98054 10.0741 5.88143C10.0741 5.8227 10.1072 5.79701 10.1475 5.87042C10.1916 5.94016 10.1255 6.20812 9.89793 6.01358C9.72908 6.1861 9.61529 6.07965 9.59326 6.02459C9.6006 5.98054 9.61162 5.92181 9.61162 5.89612Z" fill="white"/>
<path d="M8.8409 5.78945C8.77115 5.86653 8.79685 5.8702 8.83723 5.91792C8.8776 5.96563 8.89963 6.00234 8.9657 5.94728C9.03177 5.89222 9.04278 5.86286 8.98405 5.80046C8.92532 5.73806 8.89229 5.73439 8.8409 5.78945Z" fill="white"/>
<path d="M9.15645 5.82966C9.0757 5.8994 9.07937 5.90675 9.15278 5.9875C9.22986 6.06459 9.22986 6.05357 9.29593 5.99484C9.362 5.93611 9.36935 5.9251 9.29593 5.85168C9.21885 5.7746 9.21885 5.7746 9.15645 5.82966Z" fill="white"/>
<path d="M8.5398 6.32931C8.5398 6.50918 8.727 6.63398 8.8151 6.42108C8.91054 6.18983 9.08673 6.04667 9.22989 6.23388C9.34368 6.3807 9.53822 6.49817 9.65936 6.37703C9.74378 6.29261 9.80618 6.30362 9.90529 6.3807C10.0044 6.45779 10.1696 6.45045 10.1586 6.28894C10.1549 6.22653 10.1806 6.18616 10.2283 6.27792C10.276 6.36969 10.2246 6.55323 10.0521 6.56424C9.99706 6.56791 9.90896 6.57525 9.85023 6.50184C9.7915 6.42842 9.76213 6.43577 9.69606 6.4945C9.60797 6.57158 9.3657 6.56791 9.27026 6.44311C9.11977 6.24856 9.03901 6.22653 8.95826 6.3807C8.8775 6.53487 8.74903 6.74778 8.56182 6.56424C8.46639 6.4688 8.48841 6.37703 8.49208 6.34033C8.49208 6.31096 8.5398 6.28894 8.5398 6.32931Z" fill="white"/>
<path d="M9.07949 6.46837C8.92899 6.53077 8.88862 6.71064 9.02076 6.78772C9.10518 6.83544 9.13822 6.71431 9.07949 6.68494C9.02076 6.65558 9.03911 6.58216 9.10518 6.53077C9.16758 6.47938 9.13455 6.44268 9.07949 6.46837Z" fill="white"/>
<path d="M10.3349 7.74983C10.1954 7.60667 9.89445 7.56262 9.69623 7.57363C9.45764 7.58465 9.28878 7.42681 9.23739 7.22492C9.21904 7.15884 9.15297 7.0891 9.17499 7.23226C9.20803 7.45984 9.38789 7.61768 9.69623 7.64338C10.1624 7.68008 10.4671 7.83425 10.2909 8.32246C10.1808 8.62345 9.61915 8.7923 9.33283 8.46928C9.00981 8.10956 9.15664 7.66173 9.61548 7.21391C9.73661 7.09644 9.84673 7.02303 9.92749 6.99733C10.0082 6.97164 10.1514 6.82848 9.98255 6.7881C9.76231 6.73672 9.43194 6.76608 9.21904 6.87987C9.17866 6.9019 9.18601 7.00835 9.27777 7.00835C9.36954 7.00468 9.43194 7.00468 9.51637 7.1148C9.56776 7.18087 9.67421 7.27998 9.81737 7.34605C9.49434 7.48921 9.5127 7.93336 9.80268 8.16829C10.089 8.39954 10.6433 8.37385 10.959 8.05082C11.5426 7.44883 10.9626 7.0267 11.2453 6.41369C11.2746 6.35129 11.3003 6.2999 11.2526 6.25952C11.2049 6.22282 11.1608 6.10536 11.1388 6.03561C11.1168 5.9622 11.0948 5.97688 11.0801 6.08333C10.959 6.99733 11.3554 7.48921 10.9479 7.89666C10.5075 8.33714 10.1551 8.23803 9.87243 8.03247C9.78066 7.9664 9.50903 7.59566 9.91648 7.38276C9.98989 7.40478 10.0706 7.41579 10.1587 7.40845C10.4708 7.38276 10.6359 7.09277 10.5368 6.67431C10.5148 6.58622 10.4487 6.41369 10.5589 6.39534C10.6102 6.388 10.5845 6.35129 10.5552 6.30357C10.5258 6.25218 10.4818 6.13839 10.4781 6.07232C10.4744 6.00625 10.4451 6.03194 10.423 6.10903C10.368 6.30724 10.3753 6.46875 10.4194 6.66697C10.4634 6.86519 10.4928 7.14416 10.2835 7.26897C9.90546 7.49655 9.6008 7.01569 9.49434 6.98632C9.41359 6.9643 9.35119 6.89455 9.50169 6.86886C9.63016 6.84684 9.78066 6.85051 9.83939 6.84684C9.89812 6.84316 9.97521 6.88354 9.86509 6.92392C9.61915 7.00835 9.4246 7.23226 9.28511 7.41212C9.14563 7.58832 8.86298 7.82691 8.65375 7.65806C8.44452 7.48921 8.54363 7.27631 8.64641 7.14416C8.69046 7.0891 8.69413 7.05607 8.61705 7.03037C8.53996 7.00468 8.45186 6.90557 8.62806 6.7257C8.65742 6.69634 8.61705 6.65229 8.58034 6.68165C8.4225 6.82114 8.3601 6.97531 8.55831 7.11113C8.40047 7.32036 8.40414 7.62135 8.5473 7.73882C8.68679 7.85628 8.96209 7.85995 9.11626 7.70945C8.97677 8.07285 9.05386 8.71889 9.6999 8.74826C10.3496 8.77762 10.5111 8.18664 10.3973 7.84894C10.735 7.63604 11.1498 7.56262 11.4068 7.37542C11.6601 7.18821 11.8876 6.98632 11.7959 6.59723C11.7151 6.25585 11.3811 6.39534 11.3481 6.53483C11.3224 6.64495 11.3517 6.79545 11.5536 6.83949C11.6564 6.86152 11.627 6.7881 11.5536 6.74773C11.4802 6.71102 11.4141 6.5752 11.4765 6.50913C11.5389 6.44306 11.6894 6.42838 11.7225 6.70001C11.7555 6.97164 11.5279 7.17353 11.3921 7.28365C11.1352 7.50022 10.5882 7.603 10.3349 7.74983Z" fill="white"/>
<path d="M8.82608 7.01555C8.76367 7.05593 8.72697 7.0596 8.78937 7.14769C8.85177 7.23578 8.85911 7.19908 8.9105 7.16604C8.9619 7.13301 8.9986 7.12934 8.94354 7.04491C8.89215 6.96049 8.87013 6.98618 8.82608 7.01555Z" fill="white"/>
<path d="M8.74537 7.28005C8.67196 7.33511 8.6793 7.35714 8.72702 7.41954C8.77474 7.48194 8.78942 7.48928 8.85917 7.43055C8.92891 7.37182 8.9179 7.35714 8.87385 7.30208C8.82613 7.24334 8.81512 7.22499 8.74537 7.28005Z" fill="white"/>
<path d="M9.43551 8.02853C9.37678 8.07258 9.38412 8.0946 9.42449 8.14967C9.4612 8.20473 9.48322 8.21208 9.53461 8.16068C9.586 8.10929 9.60802 8.09828 9.55297 8.0322C9.49424 7.97346 9.47588 7.99916 9.43551 8.02853Z" fill="white"/>
<path d="M11.5753 6.65957C11.5937 6.67425 11.6121 6.68159 11.6194 6.67058C11.6304 6.66324 11.6304 6.63387 11.6231 6.61919C11.6121 6.6045 11.5864 6.58982 11.5717 6.60817C11.5533 6.62286 11.5607 6.64855 11.5753 6.65957Z" fill="white"/>
<path d="M11.5498 8.06533C11.4471 8.30393 11.0837 8.67467 10.7974 8.52417C10.489 8.35899 10.6872 7.95521 10.779 7.65054C10.8708 7.34588 10.801 6.71819 10.746 6.54199C10.6909 6.3658 10.6946 6.17493 10.7203 6.03177C10.746 5.89228 10.7827 5.95835 10.7937 6.04278C10.801 6.12721 10.8267 6.32175 10.8744 6.36213C10.9222 6.39884 10.9809 6.43554 10.9222 6.48326C10.8634 6.53465 10.8598 6.69983 10.8928 6.96045C10.9258 7.22474 10.9442 7.5551 10.8341 7.79003C10.7239 8.02862 10.6909 8.31494 10.8781 8.39936C11.0653 8.48379 11.2415 8.35532 11.4618 7.95888C11.3186 7.67257 11.2672 7.23576 11.3443 7.02285C11.3773 6.93476 11.4654 6.92375 11.4434 7.0669C11.4177 7.20639 11.4214 7.74231 11.6086 7.9442C11.7958 8.14609 12.005 8.12773 12.0417 7.83408C12.0931 7.42663 12.0564 6.67047 11.95 6.29606C11.9316 6.23733 11.9279 6.18961 11.9793 6.14189C12.0307 6.09417 12.0784 6.01342 12.0821 6.14189C12.0858 6.27036 12.0637 6.32909 12.2106 6.50529C13.0805 7.55143 12.0784 9.2216 10.2578 8.8582C10.0632 8.81782 10.1917 8.77377 10.3495 8.79947C11.1461 8.91693 11.7554 8.62695 12.1188 8.19013C12.4492 7.79737 12.5666 6.98615 12.1372 6.67414C12.1812 7.3679 12.2289 7.95521 12.0197 8.1314C11.7958 8.31127 11.6453 8.16811 11.5498 8.06533Z" fill="white"/>
<path d="M11.759 7.36783C11.6709 7.49997 11.6746 7.69085 11.8288 7.73857C11.9279 7.77161 11.9242 7.66516 11.8655 7.63212C11.8067 7.59541 11.792 7.52567 11.8324 7.45225C11.8544 7.40821 11.8067 7.29441 11.759 7.36783Z" fill="white"/>
<path d="M10.5001 10.117C11.9573 10.117 13.1356 8.93508 13.1356 7.48148C13.1356 6.68127 12.7796 5.96915 12.218 5.48462C12.5557 5.88473 12.7576 6.4023 12.7576 6.97125C12.7576 8.23398 11.7444 9.2581 10.4964 9.2581C9.24837 9.2581 8.23526 8.23398 8.23526 6.97125C8.23526 6.40597 8.44082 5.88473 8.77485 5.48462C8.21324 5.96915 7.85718 6.68127 7.85718 7.48148C7.86452 8.93875 9.04281 10.117 10.5001 10.117Z" fill="white"/>
<path d="M10.3091 3.39611C10.221 2.90423 9.5015 2.87487 9.38771 2.79778C9.25924 2.71336 9.27392 2.79778 9.32531 2.92993C9.45745 3.26763 9.90161 3.41079 10.1072 3.4475C10.2724 3.47686 10.3274 3.48787 10.3091 3.39611Z" fill="white"/>
<path d="M10.5256 3.41076C10.5954 2.91155 9.88692 2.67295 9.8025 2.56283C9.70339 2.43803 9.69237 2.51511 9.73275 2.6546C9.82085 2.95193 10.1329 3.29697 10.3164 3.39608C10.4669 3.47316 10.5146 3.50253 10.5256 3.41076Z" fill="white"/>
<path d="M11.1167 3.70067C11.1791 3.09867 10.6028 3.00691 10.4523 2.8197C10.3532 2.69857 10.3458 2.76464 10.3789 2.90413C10.4486 3.20512 10.7349 3.56485 10.9111 3.67497C11.0506 3.76307 11.1057 3.79611 11.1167 3.70067Z" fill="white"/>
<path d="M10.9331 3.57202C10.3348 3.17926 9.91265 3.39583 9.74013 3.37748C9.57127 3.35912 9.51621 3.46557 9.8062 3.62341C10.1512 3.81429 10.6431 3.7886 10.8377 3.71151C11.0359 3.6381 10.9772 3.60139 10.9331 3.57202Z" fill="white"/>
<path d="M11.8397 3.83696C11.6598 3.18358 11.2304 3.29003 11.1019 3.20927C10.9807 3.13219 10.9624 3.15054 10.9918 3.29737C11.0432 3.55432 11.4836 3.83696 11.7039 3.92506C11.781 3.95809 11.8801 3.99113 11.8397 3.83696Z" fill="white"/>
<path d="M11.7591 3.94683C11.2378 3.53204 10.8377 3.84405 10.6762 3.79633C10.5624 3.76329 10.6138 3.84405 10.6615 3.87708C10.9956 4.10834 11.403 4.23314 11.7224 4.08998C11.8398 4.03492 11.8472 4.01657 11.7591 3.94683Z" fill="white"/>
<path d="M12.8714 4.37275C12.8787 3.96164 12.0271 3.79278 11.8546 3.53951C11.7481 3.38534 11.6527 3.46976 11.7114 3.70836C11.7885 4.02771 12.3721 4.37643 12.6842 4.44617C12.8787 4.48655 12.8714 4.4168 12.8714 4.37275Z" fill="white"/>
<path d="M12.8455 4.43867C12.3096 3.96148 11.8618 4.11565 11.6929 4.07527C11.5277 4.03122 11.4616 4.13033 11.7223 4.32855C12.0379 4.56715 12.5262 4.61119 12.7317 4.56715C12.9373 4.51943 12.8859 4.47538 12.8455 4.43867Z" fill="white"/>
<path d="M13.8074 5.15077C13.6496 4.44966 13.1687 4.31018 13.0549 4.17436C12.9411 4.04221 12.8237 4.07892 12.9191 4.39827C13.0366 4.77636 13.4257 5.10305 13.6312 5.18747C13.8331 5.26823 13.8184 5.19849 13.8074 5.15077Z" fill="white"/>
<path d="M13.7962 5.24257C13.4071 4.61488 12.8969 4.6369 12.7391 4.54514C12.5849 4.45337 12.4821 4.53045 12.684 4.80576C12.9263 5.13245 13.4108 5.32333 13.6384 5.33434C13.8623 5.34902 13.8256 5.28662 13.7962 5.24257Z" fill="white"/>
<path d="M14.2992 5.99114C14.5194 5.27902 14.0055 5.01106 13.9504 4.8936C13.8954 4.77613 13.833 4.77613 13.7963 4.90094C13.6531 5.40382 14.123 5.90671 14.1927 5.99848C14.2698 6.09025 14.2845 6.0462 14.2992 5.99114Z" fill="white"/>
<path d="M14.1892 6.18943C14.0167 5.38554 13.5468 5.42959 13.4404 5.31947C13.3303 5.20568 13.3156 5.28643 13.3339 5.42959C13.3853 5.81869 13.8515 6.09032 14.0681 6.2188C14.1305 6.2555 14.2149 6.30689 14.1892 6.18943Z" fill="white"/>
<path d="M14.6441 7.12572C14.9635 6.37323 14.5854 5.863 14.468 5.75288C14.3505 5.64276 14.2734 5.59504 14.3101 5.75288C14.3652 5.98046 14.1817 6.57879 14.4643 7.01193C14.556 7.15509 14.5707 7.29457 14.6441 7.12572Z" fill="white"/>
<path d="M14.4716 7.27263C14.5487 6.81012 14.2807 6.39166 13.9981 6.22648C13.8329 6.13104 13.8256 6.1494 13.8292 6.29255C13.8366 6.71468 14.2404 7.07808 14.3578 7.27263C14.4679 7.45984 14.4606 7.32035 14.4716 7.27263Z" fill="white"/>
<path d="M14.3946 8.48023C14.1633 7.60661 14.6552 7.10739 14.8057 7.00462C14.9525 6.90184 15.0443 6.86146 14.9782 7.03031C14.8828 7.27258 14.9893 7.95532 14.6148 8.38479C14.4864 8.52428 14.446 8.67478 14.3946 8.48023Z" fill="white"/>
<path d="M14.4533 8.28894C14.6478 7.52911 14.2184 7.09964 14.0899 7.01155C13.9614 6.92345 13.8843 6.89042 13.9394 7.03357C14.0238 7.2428 13.9357 7.83745 14.2624 8.20819C14.3725 8.32932 14.4092 8.46147 14.4533 8.28894Z" fill="white"/>
<path d="M14.2111 7.93322C13.855 8.31864 13.844 8.87292 14.0055 9.20328C14.101 9.39782 14.1193 9.38314 14.2074 9.24366C14.4607 8.84355 14.3102 8.25624 14.3212 8.00296C14.3249 7.75703 14.2478 7.89284 14.2111 7.93322Z" fill="white"/>
<path d="M14.7947 8.54246C14.7947 9.06737 14.4717 9.49684 14.1303 9.62899C13.9284 9.70607 13.9284 9.68405 13.9541 9.52254C14.0496 8.93155 14.5011 8.71498 14.6699 8.52044C14.8277 8.33323 14.7947 8.4874 14.7947 8.54246Z" fill="white"/>
<path d="M13.5688 10.1099C14.1451 9.58496 13.8404 9.21055 13.8661 8.86918C13.8808 8.68564 13.8037 8.73336 13.7376 8.79577C13.3632 9.15916 13.3522 9.80887 13.4293 10.0585C13.4623 10.1686 13.5137 10.1576 13.5688 10.1099Z" fill="white"/>
<path d="M14.3432 9.76456C14.1523 10.3445 13.6421 10.7079 13.2163 10.7263C12.9667 10.7373 12.974 10.7153 13.0621 10.5464C13.3815 9.92607 13.9578 9.84899 14.2147 9.69482C14.4533 9.54799 14.3616 9.70583 14.3432 9.76456Z" fill="white"/>
<path d="M12.7649 10.8587C13.5173 10.477 13.3668 9.85293 13.5063 9.69142C13.6054 9.5813 13.4843 9.59599 13.4219 9.62902C12.9814 9.88964 12.6254 10.2971 12.6217 10.7339C12.6217 10.9064 12.6364 10.9248 12.7649 10.8587Z" fill="white"/>
<path d="M11.7333 11.5599C12.6876 11.7103 13.1281 10.9872 13.4071 10.9212C13.5539 10.8844 13.4438 10.8294 13.3741 10.822C12.7354 10.7486 11.9315 11.046 11.6892 11.3763C11.5901 11.5158 11.5901 11.5378 11.7333 11.5599Z" fill="white"/>
<path d="M12.6988 10.4293C12.5079 11.057 11.7958 11.5708 11.2562 11.6112C11.0066 11.6296 11.0029 11.6002 11.0947 11.435C11.5315 10.6605 12.273 10.5284 12.5373 10.3302C12.7686 10.1576 12.7172 10.3669 12.6988 10.4293Z" fill="white"/>
<path d="M10.6908 3.39611C10.7788 2.90423 11.4983 2.87487 11.6121 2.79778C11.7406 2.71336 11.7259 2.79778 11.6745 2.92993C11.5424 3.26763 11.0982 3.41079 10.8926 3.4475C10.7275 3.47686 10.6724 3.48787 10.6908 3.39611Z" fill="white"/>
<path d="M10.4743 3.41076C10.4046 2.91155 11.113 2.67295 11.1974 2.56283C11.2965 2.43803 11.3076 2.51511 11.2672 2.6546C11.1791 2.95193 10.8671 3.29697 10.6835 3.39608C10.533 3.47316 10.4853 3.50253 10.4743 3.41076Z" fill="white"/>
<path d="M9.88337 3.70067C9.82097 3.09867 10.3973 3.00691 10.5477 2.8197C10.6469 2.69857 10.6542 2.76464 10.6212 2.90413C10.5514 3.20512 10.2651 3.56485 10.0889 3.67497C9.94944 3.76307 9.89438 3.79611 9.88337 3.70067Z" fill="white"/>
<path d="M10.0667 3.57202C10.6651 3.17926 11.0872 3.39583 11.2597 3.37748C11.4286 3.35912 11.4836 3.46557 11.1936 3.62341C10.8486 3.81429 10.3567 3.7886 10.1622 3.71151C9.96396 3.6381 10.0227 3.60139 10.0667 3.57202Z" fill="white"/>
<path d="M9.16021 3.83696C9.34007 3.18358 9.76954 3.29003 9.89802 3.20927C10.0191 3.13219 10.0375 3.15054 10.0081 3.29737C9.95675 3.55432 9.51627 3.83696 9.29602 3.92506C9.21894 3.95809 9.11983 3.99113 9.16021 3.83696Z" fill="white"/>
<path d="M9.24101 3.94683C9.76225 3.53204 10.1623 3.84405 10.3239 3.79633C10.4376 3.76329 10.3863 3.84405 10.3385 3.87708C10.0045 4.10834 9.59707 4.23314 9.27772 4.08998C9.16026 4.03492 9.15292 4.01657 9.24101 3.94683Z" fill="white"/>
<path d="M8.12871 4.37275C8.12137 3.96164 8.97296 3.79278 9.14548 3.53951C9.25193 3.38534 9.34737 3.46976 9.28864 3.70836C9.21155 4.02771 8.62792 4.37643 8.31591 4.44617C8.12137 4.48655 8.12871 4.4168 8.12871 4.37275Z" fill="white"/>
<path d="M8.15445 4.43867C8.69037 3.96148 9.13819 4.11565 9.30705 4.07527C9.47223 4.03122 9.5383 4.13033 9.27768 4.32855C8.962 4.56715 8.4738 4.61119 8.26824 4.56715C8.06268 4.51943 8.11407 4.47538 8.15445 4.43867Z" fill="white"/>
<path d="M7.1927 5.15077C7.35054 4.44966 7.83141 4.31018 7.9452 4.17436C8.05899 4.04221 8.17645 4.07892 8.07734 4.39827C7.95988 4.77636 7.57079 5.10305 7.36523 5.18747C7.16701 5.26823 7.18169 5.19849 7.1927 5.15077Z" fill="white"/>
<path d="M7.20371 5.24257C7.5928 4.61488 8.10302 4.6369 8.26086 4.54514C8.41503 4.45337 8.51781 4.53045 8.31592 4.80576C8.07366 5.13245 7.58913 5.32333 7.36155 5.33434C7.13764 5.34902 7.17434 5.28662 7.20371 5.24257Z" fill="white"/>
<path d="M6.70093 5.99114C6.48069 5.27902 6.99459 5.01106 7.04965 4.8936C7.10471 4.77613 7.16711 4.77613 7.20382 4.90094C7.34698 5.40382 6.87713 5.90671 6.80738 5.99848C6.7303 6.09025 6.71562 6.0462 6.70093 5.99114Z" fill="white"/>
<path d="M6.81088 6.18943C6.98341 5.38554 7.45325 5.42959 7.5597 5.31947C7.66982 5.20568 7.6845 5.28643 7.66615 5.42959C7.61476 5.81869 7.14859 6.09032 6.93202 6.2188C6.86961 6.2555 6.78519 6.30689 6.81088 6.18943Z" fill="white"/>
<path d="M6.35575 7.12572C6.03639 6.37323 6.41448 5.863 6.53194 5.75288C6.6494 5.64276 6.72649 5.59504 6.68978 5.75288C6.63472 5.98046 6.81826 6.57879 6.53561 7.01193C6.44384 7.15509 6.42916 7.29457 6.35575 7.12572Z" fill="white"/>
<path d="M6.52831 7.27263C6.45122 6.81012 6.71919 6.39166 7.00184 6.22648C7.16703 6.13104 7.17437 6.1494 7.1707 6.29255C7.16336 6.71468 6.75957 7.07808 6.6421 7.27263C6.53198 7.45984 6.53932 7.32035 6.52831 7.27263Z" fill="white"/>
<path d="M6.60544 8.48023C6.83669 7.60661 6.34482 7.10739 6.19432 7.00462C6.04749 6.90184 5.95573 6.86146 6.0218 7.03031C6.11724 7.27258 6.01079 7.95532 6.38519 8.38479C6.51367 8.52428 6.55405 8.67478 6.60544 8.48023Z" fill="white"/>
<path d="M6.54674 8.28894C6.3522 7.52911 6.78167 7.09964 6.91014 7.01155C7.03862 6.92345 7.1157 6.89042 7.06064 7.03357C6.97621 7.2428 7.06431 7.83745 6.73762 8.20819C6.6275 8.32932 6.59079 8.46147 6.54674 8.28894Z" fill="white"/>
<path d="M6.78886 7.93322C7.14492 8.31864 7.15593 8.87292 6.99442 9.20328C6.89898 9.39782 6.88062 9.38314 6.79253 9.24366C6.53925 8.84355 6.68975 8.25624 6.67874 8.00296C6.67506 7.75703 6.75215 7.89284 6.78886 7.93322Z" fill="white"/>
<path d="M6.20527 8.54246C6.20527 9.06737 6.52829 9.49684 6.86967 9.62899C7.07156 9.70607 7.07156 9.68405 7.04586 9.52254C6.95043 8.93155 6.49893 8.71498 6.33007 8.52044C6.17223 8.33323 6.20527 8.4874 6.20527 8.54246Z" fill="white"/>
<path d="M7.43132 10.1099C6.85502 9.58496 7.15969 9.21055 7.13399 8.86918C7.11931 8.68564 7.1964 8.73336 7.26247 8.79577C7.63688 9.15916 7.64789 9.80887 7.57081 10.0585C7.53777 10.1686 7.48638 10.1576 7.43132 10.1099Z" fill="white"/>
<path d="M6.65678 9.76456C6.84765 10.3445 7.35788 10.7079 7.78368 10.7263C8.03328 10.7373 8.02594 10.7153 7.93784 10.5464C7.6185 9.92607 7.0422 9.84899 6.78525 9.69482C6.54665 9.54799 6.63842 9.70583 6.65678 9.76456Z" fill="white"/>
<path d="M8.23513 10.8587C7.48265 10.477 7.63314 9.85293 7.49366 9.69142C7.39455 9.5813 7.51568 9.59599 7.57808 9.62902C8.01856 9.88964 8.37462 10.2971 8.37829 10.7339C8.37829 10.9064 8.3636 10.9248 8.23513 10.8587Z" fill="white"/>
<path d="M9.26653 11.5599C8.31214 11.7103 7.87166 10.9872 7.59269 10.9212C7.44586 10.8844 7.55598 10.8294 7.62572 10.822C8.26443 10.7486 9.06831 11.046 9.31057 11.3763C9.40968 11.5158 9.40968 11.5378 9.26653 11.5599Z" fill="white"/>
<path d="M8.30128 10.4293C8.49215 11.057 9.20427 11.5708 9.74387 11.6112C9.99348 11.6296 9.99715 11.6002 9.90538 11.435C9.46856 10.6605 8.72708 10.5284 8.46279 10.3302C8.23153 10.1576 8.28292 10.3669 8.30128 10.4293Z" fill="white"/>
<path d="M11.6196 4.00927C11.4911 3.91751 11.025 3.96523 10.9442 3.90649C11.1094 4.04598 11.4728 3.9432 11.6196 4.00927Z" fill="#007859"/>
<path d="M12.7318 4.24424C12.629 4.06804 12.0454 3.94691 11.9573 3.7854C12.1151 4.09374 12.5666 4.04969 12.7318 4.24424Z" fill="#007859"/>
<path d="M12.6437 4.45323C12.4308 4.23666 11.9205 4.32108 11.7664 4.19995C12.1261 4.5193 12.3206 4.26969 12.6437 4.45323Z" fill="#007859"/>
<path d="M11.3699 3.51001C11.5094 3.58342 11.6856 3.65684 11.7664 3.82569C11.6709 3.69722 11.4874 3.64583 11.3406 3.5357C11.3516 3.52836 11.3663 3.51735 11.3699 3.51001Z" fill="#007859"/>
<path d="M13.5393 4.872C13.4549 4.67745 13.1539 4.45721 13.1245 4.38013C13.2126 4.64075 13.4585 4.70315 13.5393 4.872Z" fill="#007859"/>
<path d="M13.62 5.22414C13.3521 4.80568 12.9409 4.85707 12.7721 4.69556C12.8969 4.84606 13.3778 4.94883 13.62 5.22414Z" fill="#007859"/>
<path d="M14.2331 5.86308C14.2551 5.4226 13.9247 5.25375 13.91 5.00781C13.9027 5.30147 14.2441 5.70524 14.2331 5.86308Z" fill="#007859"/>
<path d="M14.0681 6.10158C14.002 5.71616 13.5505 5.69413 13.4734 5.46655C13.4734 5.67578 13.9983 5.89235 14.0681 6.10158Z" fill="#007859"/>
<path d="M14.4386 5.88135C14.6772 6.17867 14.5047 6.61916 14.6075 6.94218C14.49 6.70358 14.5487 6.10893 14.4386 5.88135Z" fill="#007859"/>
<path d="M14.0496 7.12549C14.4056 7.50724 14.2625 7.94038 14.4056 8.12392C14.2294 7.8633 14.2551 7.36408 14.0496 7.12549Z" fill="#007859"/>
<path d="M14.7873 7.177C14.4826 7.51471 14.6698 8.02493 14.5083 8.25986C14.6845 8.05797 14.6588 7.43028 14.7873 7.177Z" fill="#007859"/>
<path d="M14.4056 7.17693C14.3616 6.78783 13.9982 6.58228 13.9651 6.37305C13.9321 6.58228 14.3212 6.91264 14.4056 7.17693Z" fill="#007859"/>
<path d="M14.2184 8.10938C14.2771 8.38101 14.0569 8.96465 14.1266 9.14452C13.9835 8.82884 14.2551 8.24519 14.2184 8.10938Z" fill="#007859"/>
<path d="M14.6846 8.72607C14.5414 9.21061 14.2514 9.1739 14.1597 9.47123C14.2294 9.19225 14.6112 8.93897 14.6846 8.72607Z" fill="#007859"/>
<path d="M13.745 8.95728C13.5504 9.2803 13.7119 9.65105 13.5504 9.88231C13.778 9.65105 13.6605 9.2179 13.745 8.95728Z" fill="#007859"/>
<path d="M14.2035 9.83838C13.976 10.2715 13.4988 10.2275 13.3042 10.5432C13.4988 10.1504 14.0824 10.0843 14.2035 9.83838Z" fill="#007859"/>
<path d="M13.3631 9.78711C12.9556 10.0734 13.0841 10.3707 12.7684 10.6864C13.1612 10.3707 13.1282 10.0147 13.3631 9.78711Z" fill="#007859"/>
<path d="M13.1759 10.9394C12.7795 10.9211 12.2105 11.4387 11.8618 11.3983C12.2105 11.4717 12.8456 11.0055 13.1759 10.9394Z" fill="#007859"/>
<path d="M12.5335 10.4731C12.5078 10.8806 11.4727 11.1339 11.3625 11.4055C11.491 11.0494 12.3977 10.7852 12.5335 10.4731Z" fill="#007859"/>
<path d="M10.2064 3.04028C10.0705 2.93016 9.9127 2.83472 9.86865 2.72827C9.89802 2.86776 10.0338 2.97788 10.1623 3.07699C10.177 3.06965 10.1917 3.04762 10.2064 3.04028Z" fill="#007859"/>
<path d="M9.9787 3.16119C9.77314 3.05841 9.53454 3.06575 9.43176 2.92993C9.49784 3.06575 9.71808 3.12081 9.91262 3.19055C9.93098 3.18321 9.96034 3.16853 9.9787 3.16119Z" fill="#007859"/>
<path d="M9.38049 4.00927C9.50897 3.91751 9.97515 3.96523 10.0559 3.90649C9.89072 4.04598 9.52732 3.9432 9.38049 4.00927Z" fill="#007859"/>
<path d="M8.26819 4.24424C8.37097 4.06804 8.95461 3.94691 9.0427 3.7854C8.88486 4.09374 8.43337 4.04969 8.26819 4.24424Z" fill="#007859"/>
<path d="M8.35632 4.45323C8.56922 4.23666 9.07945 4.32108 9.23362 4.19995C8.87389 4.5193 8.67934 4.26969 8.35632 4.45323Z" fill="#007859"/>
<path d="M9.23364 3.82577C9.36212 3.56148 9.71083 3.53212 9.80627 3.37061C9.66679 3.61287 9.36579 3.64591 9.23364 3.82577Z" fill="#007859"/>
<path d="M10.2467 3.59791C10.6101 3.42905 10.9698 3.57221 11.146 3.49146C10.9331 3.60158 10.4266 3.55019 10.2467 3.59791Z" fill="#007859"/>
<path d="M7.46069 4.872C7.54512 4.67745 7.84612 4.45721 7.87548 4.38013C7.78739 4.64075 7.54145 4.70315 7.46069 4.872Z" fill="#007859"/>
<path d="M7.37988 5.22414C7.64784 4.80568 8.05896 4.85707 8.22781 4.69556C8.10301 4.84606 7.62215 4.94883 7.37988 5.22414Z" fill="#007859"/>
<path d="M6.76704 5.86308C6.74502 5.4226 7.07538 5.25375 7.09006 5.00781C7.09741 5.30147 6.75603 5.70524 6.76704 5.86308Z" fill="#007859"/>
<path d="M6.93213 6.10158C6.9982 5.71616 7.4497 5.69413 7.52678 5.46655C7.52678 5.67578 7.00187 5.89235 6.93213 6.10158Z" fill="#007859"/>
<path d="M6.56143 5.88135C6.32283 6.17867 6.49536 6.61916 6.39258 6.94218C6.51004 6.70358 6.45131 6.10893 6.56143 5.88135Z" fill="#007859"/>
<path d="M6.95041 7.12549C6.59436 7.50724 6.73751 7.94038 6.59436 8.12392C6.77055 7.8633 6.74485 7.36408 6.95041 7.12549Z" fill="#007859"/>
<path d="M6.21265 7.177C6.51731 7.51471 6.33011 8.02493 6.49162 8.25986C6.31543 8.05797 6.34112 7.43028 6.21265 7.177Z" fill="#007859"/>
<path d="M6.59436 7.17693C6.63841 6.78783 7.0018 6.58228 7.03483 6.37305C7.06787 6.58228 6.67878 6.91264 6.59436 7.17693Z" fill="#007859"/>
<path d="M6.78156 8.10938C6.72283 8.38101 6.94306 8.96465 6.87332 9.14452C7.01648 8.82884 6.74485 8.24519 6.78156 8.10938Z" fill="#007859"/>
<path d="M6.31543 8.72607C6.45859 9.21061 6.74857 9.1739 6.84034 9.47123C6.7706 9.19225 6.38884 8.93897 6.31543 8.72607Z" fill="#007859"/>
<path d="M7.25513 8.95728C7.44967 9.2803 7.28816 9.65105 7.44967 9.88231C7.22209 9.65105 7.33955 9.2179 7.25513 8.95728Z" fill="#007859"/>
<path d="M6.79639 9.83838C7.02397 10.2715 7.50116 10.2275 7.69571 10.5432C7.50116 10.1504 6.91752 10.0843 6.79639 9.83838Z" fill="#007859"/>
<path d="M7.63696 9.78711C8.04441 10.0734 7.91594 10.3707 8.23161 10.6864C7.83885 10.3707 7.87189 10.0147 7.63696 9.78711Z" fill="#007859"/>
<path d="M7.82422 10.9394C8.22065 10.9211 8.78961 11.4387 9.13833 11.3983C8.78961 11.4717 8.15458 11.0055 7.82422 10.9394Z" fill="#007859"/>
<path d="M8.46643 10.4731C8.49213 10.8806 9.52726 11.1339 9.63738 11.4055C9.50891 11.0494 8.60225 10.7852 8.46643 10.4731Z" fill="#007859"/>
<path d="M9.96777 3.60914C10.0485 3.25308 10.4413 3.18701 10.4927 2.97778C10.4743 3.20169 10.0045 3.4513 9.96777 3.60914Z" fill="#007859"/>
<path d="M11.1314 2.72827C11.0727 2.99623 10.6432 3.14673 10.5845 3.35229C10.6065 3.07699 11.0507 2.91915 11.1314 2.72827Z" fill="#007859"/>
<path d="M10.7972 3.36308C10.9991 3.03271 11.4249 3.12081 11.5681 2.92993C11.4616 3.15017 10.9441 3.16119 10.7972 3.36308Z" fill="#007859"/>
<path d="M10.144 11.5821C9.56402 11.8757 8.83356 11.795 8.22055 11.3985C8.19118 11.3802 8.18017 11.4059 8.20954 11.4793C8.27561 11.6665 8.327 11.817 8.12878 12.107C8.04069 12.2318 8.1398 12.2465 8.28662 12.2354C9.0281 12.1694 9.75857 11.9968 10.1036 11.861L10.144 11.5821Z" fill="white"/>
<path d="M10.1256 11.9304C9.89802 12.0185 9.50526 12.1323 9.05744 12.2094C8.88124 12.2388 8.88491 12.3489 9.20426 12.3893C9.52728 12.426 9.94207 12.1947 10.1954 11.9855L10.1256 11.9304Z" fill="white"/>
<path d="M10.5001 11.2955C10.5808 11.2955 10.7277 11.2625 10.8745 11.2405C11.1425 11.1964 10.9479 11.6149 10.5001 11.6149V11.7544C10.9479 11.7544 11.4178 11.2625 11.3223 11.0423C11.1828 10.7266 10.7974 10.9982 10.5001 10.9982C10.2027 10.9982 9.81732 10.7229 9.67783 11.0423C9.57872 11.2625 10.0522 11.7544 10.5001 11.7544V11.6149C10.0559 11.6149 9.86137 11.2001 10.1257 11.2405C10.2725 11.2625 10.4193 11.2955 10.5001 11.2955Z" fill="white"/>
<path d="M10.8561 11.5821C11.4361 11.8757 12.1665 11.795 12.7795 11.3985C12.8089 11.3802 12.8199 11.4059 12.7906 11.4793C12.7245 11.6665 12.6731 11.817 12.8713 12.107C12.9594 12.2318 12.8603 12.2465 12.7135 12.2354C11.972 12.1694 11.2415 11.9968 10.8965 11.861L10.8561 11.5821Z" fill="white"/>
<path d="M10.8744 11.9304C11.102 12.0185 11.4948 12.1323 11.9426 12.2094C12.1188 12.2388 12.1151 12.3489 11.7958 12.3893C11.4728 12.426 11.058 12.1947 10.8047 11.9855L10.8744 11.9304Z" fill="white"/>
<path d="M10.5221 11.861C10.5331 11.9711 10.5551 12.2134 10.7093 12.1106C10.9075 11.9748 10.9553 11.8647 10.9553 11.6665C10.9553 11.5453 10.8011 11.3618 10.5001 11.3618C10.1991 11.3618 10.0449 11.5453 10.0449 11.6665C10.0449 11.8647 10.0926 11.9748 10.2909 12.1106C10.4414 12.2134 10.4597 11.9711 10.4781 11.861C10.4854 11.8243 10.5184 11.839 10.5221 11.861Z" fill="white"/>
</g>
</svg>
