<svg width="21" height="17" viewBox="0 0 21 17" fill="none" xmlns="http://www.w3.org/2000/svg">
<rect y="0.776611" width="21" height="16.1043" rx="2" fill="white"/>
<mask id="mask0" mask-type="alpha" maskUnits="userSpaceOnUse" x="0" y="0" width="21" height="17">
<rect y="0.776611" width="21" height="16.1043" rx="2" fill="white"/>
</mask>
<g mask="url(#mask0)">
<path fill-rule="evenodd" clip-rule="evenodd" d="M21 0.776611H0V1.85023H21V0.776611ZM21 2.92391H0V3.99753H21V2.92391ZM0 5.071H21V6.14461H0V5.071ZM21 7.21837H0V8.29198H21V7.21837ZM0 9.36566H21V10.4393H0V9.36566ZM21 11.5127H0V12.5864H21V11.5127ZM0 13.6601H21V14.7337H0V13.6601ZM21 15.8074H0V16.881H21V15.8074Z" fill="#D02F44"/>
<rect y="0.776611" width="9" height="7.51534" fill="#46467F"/>
<g filter="url(#filter0_d)">
<path fill-rule="evenodd" clip-rule="evenodd" d="M4 2.38691C4 2.68338 3.77614 2.92371 3.5 2.92371C3.22386 2.92371 3 2.68338 3 2.38691C3 2.09044 3.22386 1.8501 3.5 1.8501C3.77614 1.8501 4 2.09044 4 2.38691ZM2 2.38697C2 2.68344 1.77614 2.92377 1.5 2.92377C1.22386 2.92377 1 2.68344 1 2.38697C1 2.0905 1.22386 1.85016 1.5 1.85016C1.77614 1.85016 2 2.0905 2 2.38697ZM5.49988 2.92377C5.77602 2.92377 5.99988 2.68344 5.99988 2.38697C5.99988 2.0905 5.77602 1.85016 5.49988 1.85016C5.22374 1.85016 4.99988 2.0905 4.99988 2.38697C4.99988 2.68344 5.22374 2.92377 5.49988 2.92377ZM8 2.38697C8 2.68344 7.77614 2.92377 7.5 2.92377C7.22386 2.92377 7 2.68344 7 2.38697C7 2.0905 7.22386 1.85016 7.5 1.85016C7.77614 1.85016 8 2.0905 8 2.38697ZM2.49988 3.99733C2.77602 3.99733 2.99988 3.75699 2.99988 3.46052C2.99988 3.16405 2.77602 2.92371 2.49988 2.92371C2.22374 2.92371 1.99988 3.16405 1.99988 3.46052C1.99988 3.75699 2.22374 3.99733 2.49988 3.99733ZM5 3.46052C5 3.75699 4.77614 3.99733 4.5 3.99733C4.22386 3.99733 4 3.75699 4 3.46052C4 3.16405 4.22386 2.92371 4.5 2.92371C4.77614 2.92371 5 3.16405 5 3.46052ZM6.50012 3.99733C6.77626 3.99733 7.00012 3.75699 7.00012 3.46052C7.00012 3.16405 6.77626 2.92371 6.50012 2.92371C6.22398 2.92371 6.00012 3.16405 6.00012 3.46052C6.00012 3.75699 6.22398 3.99733 6.50012 3.99733ZM8 4.53427C8 4.83074 7.77614 5.07108 7.5 5.07108C7.22386 5.07108 7 4.83074 7 4.53427C7 4.2378 7.22386 3.99746 7.5 3.99746C7.77614 3.99746 8 4.2378 8 4.53427ZM5.49988 5.07108C5.77602 5.07108 5.99988 4.83074 5.99988 4.53427C5.99988 4.2378 5.77602 3.99746 5.49988 3.99746C5.22374 3.99746 4.99988 4.2378 4.99988 4.53427C4.99988 4.83074 5.22374 5.07108 5.49988 5.07108ZM4.00012 4.53427C4.00012 4.83074 3.77626 5.07108 3.50012 5.07108C3.22398 5.07108 3.00012 4.83074 3.00012 4.53427C3.00012 4.2378 3.22398 3.99746 3.50012 3.99746C3.77626 3.99746 4.00012 4.2378 4.00012 4.53427ZM1.5 5.07108C1.77614 5.07108 2 4.83074 2 4.53427C2 4.2378 1.77614 3.99746 1.5 3.99746C1.22386 3.99746 1 4.2378 1 4.53427C1 4.83074 1.22386 5.07108 1.5 5.07108ZM2.99988 5.60782C2.99988 5.90429 2.77602 6.14463 2.49988 6.14463C2.22374 6.14463 1.99988 5.90429 1.99988 5.60782C1.99988 5.31135 2.22374 5.07101 2.49988 5.07101C2.77602 5.07101 2.99988 5.31135 2.99988 5.60782ZM4.5 6.14463C4.77614 6.14463 5 5.90429 5 5.60782C5 5.31135 4.77614 5.07101 4.5 5.07101C4.22386 5.07101 4 5.31135 4 5.60782C4 5.90429 4.22386 6.14463 4.5 6.14463ZM7.00012 5.60782C7.00012 5.90429 6.77626 6.14463 6.50012 6.14463C6.22398 6.14463 6.00012 5.90429 6.00012 5.60782C6.00012 5.31135 6.22398 5.07101 6.50012 5.07101C6.77626 5.07101 7.00012 5.31135 7.00012 5.60782ZM7.5 7.21816C7.77614 7.21816 8 6.97782 8 6.68135C8 6.38488 7.77614 6.14454 7.5 6.14454C7.22386 6.14454 7 6.38488 7 6.68135C7 6.97782 7.22386 7.21816 7.5 7.21816ZM5.99988 6.68135C5.99988 6.97782 5.77602 7.21816 5.49988 7.21816C5.22374 7.21816 4.99988 6.97782 4.99988 6.68135C4.99988 6.38488 5.22374 6.14454 5.49988 6.14454C5.77602 6.14454 5.99988 6.38488 5.99988 6.68135ZM3.50012 7.21816C3.77626 7.21816 4.00012 6.97782 4.00012 6.68135C4.00012 6.38488 3.77626 6.14454 3.50012 6.14454C3.22398 6.14454 3.00012 6.38488 3.00012 6.68135C3.00012 6.97782 3.22398 7.21816 3.50012 7.21816ZM2 6.68135C2 6.97782 1.77614 7.21816 1.5 7.21816C1.22386 7.21816 1 6.97782 1 6.68135C1 6.38488 1.22386 6.14454 1.5 6.14454C1.77614 6.14454 2 6.38488 2 6.68135Z" fill="url(#paint0_linear)"/>
</g>
</g>
<defs>
<filter id="filter0_d" x="1" y="1.8501" width="7" height="6.36806" filterUnits="userSpaceOnUse" color-interpolation-filters="sRGB">
<feFlood flood-opacity="0" result="BackgroundImageFix"/>
<feColorMatrix in="SourceAlpha" type="matrix" values="0 0 0 0 0 0 0 0 0 0 0 0 0 0 0 0 0 0 127 0"/>
<feOffset dy="1"/>
<feColorMatrix type="matrix" values="0 0 0 0 0 0 0 0 0 0 0 0 0 0 0 0 0 0 0.06 0"/>
<feBlend mode="normal" in2="BackgroundImageFix" result="effect1_dropShadow"/>
<feBlend mode="normal" in="SourceGraphic" in2="effect1_dropShadow" result="shape"/>
</filter>
<linearGradient id="paint0_linear" x1="1" y1="1.8501" x2="1" y2="7.21816" gradientUnits="userSpaceOnUse">
<stop stop-color="white"/>
<stop offset="1" stop-color="#F0F0F0"/>
</linearGradient>
</defs>
</svg>
